# xmcd CD database file
#
# Track frame offsets:
#	150
#	20665
#	43326
#	65473
#	88488
#	112169
#	137774
#	160102
#	176268
#
# Disc length: 2631 seconds
#
# Revision: 0
# Processed by: cddbd v1.5.1PL2 Copyright (c) Steve Scherf et al.
# Submitted via: CDex 1.51
#
DISCID=7f0a4509
DTITLE=諫山実生 - Woman
DYEAR=2006
DGENRE=J ポップ
TTITLE0=真夜中のシンデレラ
TTITLE1=月のワルツ(2006 Jazz Version)
TTITLE2=永遠の片想い
TTITLE3=Over
TTITLE4=スピカ
TTITLE5=Destiny
TTITLE6=サハラの誘惑(Album Version)
TTITLE7=嘘つき
TTITLE8=Smile
EXTD=YEAR: 2006
EXTT0=
EXTT1=
EXTT2=
EXTT3=
EXTT4=
EXTT5=
EXTT6=
EXTT7=
EXTT8=
PLAYORDER=
